<?xml version="1.0" standalone="no"?>
<!DOCTYPE svg PUBLIC "-//W3C//DTD SVG 20010904//EN"
 "http://www.w3.org/TR/2001/REC-SVG-20010904/DTD/svg10.dtd">
<svg version="1.0" xmlns="http://www.w3.org/2000/svg"
 width="300.000000pt" height="300.000000pt" viewBox="0 0 300.000000 300.000000"
 preserveAspectRatio="xMidYMid meet">
<metadata>
Created by potrace 1.11, written by Peter Selinger 2001-2013
</metadata>
<g transform="translate(0.000000,300.000000) scale(0.100000,-0.100000)"
fill="#000000" stroke="none">
<path d="M1395 2442 c-3 -3 -13 -7 -23 -8 -27 -3 -176 -58 -183 -67 -3 -5 -10
-8 -15 -8 -12 1 -44 -8 -69 -19 -29 -13 -196 -76 -224 -85 -13 -4 -40 -14 -60
-23 -20 -9 -40 -17 -46 -18 -15 -4 -307 -113 -330 -124 -11 -5 -65 -25 -120
-45 -55 -20 -111 -41 -125 -47 -14 -5 -56 -21 -95 -35 -69 -25 -105 -53 -105
-80 0 -7 5 -13 11 -13 5 0 8 -4 5 -9 -6 -10 63 -42 224 -104 63 -24 124 -47
135 -52 11 -5 22 -9 25 -9 3 -1 41 -15 85 -33 44 -17 130 -50 190 -73 61 -23
118 -45 127 -51 10 -5 22 -9 27 -9 5 0 26 -8 47 -17 22 -9 44 -18 49 -19 6 -1
24 -8 40 -15 17 -7 32 -13 35 -14 3 -1 22 -9 44 -18 21 -9 42 -17 45 -17 4 0
36 -12 72 -26 78 -32 102 -41 111 -43 4 -1 27 -10 50 -19 24 -10 50 -17 58
-17 8 1 20 -2 25 -5 9 -6 160 -6 160 0 0 1 9 3 19 5 43 8 72 17 111 35 22 10
81 34 130 55 116 48 194 81 260 110 16 8 33 11 37 9 4 -3 8 -1 8 5 0 5 10 13
23 16 23 8 116 46 183 76 22 11 43 19 47 19 3 0 30 11 59 24 47 21 137 59 278
118 25 11 54 23 65 28 11 5 33 14 48 20 l28 10 -4 -388 c-3 -378 -4 -404 -20
-429 -5 -7 -6 -13 -3 -13 3 0 -2 -16 -10 -35 -8 -19 -11 -35 -7 -35 4 0 2 -5
-5 -12 -7 -7 -12 -21 -12 -33 0 -12 -5 -26 -12 -33 -7 -7 -10 -13 -7 -13 7 -3
219 -6 219 -4 0 2 -7 21 -15 44 -8 22 -12 41 -8 41 3 0 -1 7 -8 17 -8 9 -13
19 -13 22 2 6 2 7 -17 66 -7 22 -13 58 -15 82 -1 23 -5 46 -8 52 -4 5 -3 12 2
15 7 4 9 193 2 221 -1 6 -1 12 0 15 1 3 3 104 5 225 1 157 6 229 15 252 12 26
12 34 0 48 -13 16 -70 45 -100 51 -23 4 -161 54 -182 65 -20 11 -53 20 -75 21
-7 1 -13 4 -13 7 0 4 -21 12 -47 20 -27 7 -57 17 -68 22 -27 12 -158 60 -170
63 -19 4 -90 29 -100 35 -5 3 -12 6 -15 6 -9 1 -84 26 -105 35 -28 11 -58 23
-70 25 -5 2 -40 14 -77 28 -38 15 -68 24 -68 20 0 -3 -6 -1 -12 4 -10 8 -98
41 -153 57 -5 2 -14 5 -20 6 -5 2 -29 9 -51 16 -40 12 -208 16 -219 6z"/>
<path d="M519 1405 c-5 -62 -2 -195 4 -195 5 0 5 -5 1 -12 -9 -14 -13 -89 -5
-84 3 2 6 -15 7 -39 0 -24 9 -60 19 -80 21 -46 92 -125 111 -125 8 0 14 -5 14
-10 0 -6 3 -9 8 -8 4 0 25 -7 47 -17 71 -31 90 -38 98 -37 4 1 7 -2 7 -8 0 -5
7 -10 15 -10 9 0 38 -11 65 -25 27 -14 56 -25 64 -25 8 0 16 -5 18 -11 2 -5
10 -11 18 -12 18 -3 153 -59 160 -67 3 -3 10 -6 16 -7 7 -1 36 -13 65 -26 49
-22 76 -32 119 -45 27 -8 190 -11 190 -4 0 4 12 8 26 9 15 0 36 6 48 11 74 37
273 119 290 120 5 0 12 4 15 9 3 5 24 17 46 25 22 9 58 24 80 34 22 10 42 18
45 19 11 3 63 26 116 50 30 14 57 25 59 25 6 0 51 38 77 65 11 11 31 42 45 70
24 47 26 58 27 232 2 160 0 183 -13 184 -9 1 -72 2 -141 3 -133 1 -154 -4
-327 -84 -24 -11 -45 -20 -48 -20 -3 0 -27 -10 -53 -21 -206 -92 -231 -99
-364 -103 -54 -2 -98 0 -98 4 0 4 -10 6 -22 5 -13 -1 -27 1 -33 4 -5 4 -35 15
-65 25 -30 11 -66 24 -80 29 -14 6 -27 11 -30 12 -3 1 -14 5 -25 10 -59 24
-179 70 -240 92 -38 14 -76 30 -83 36 -17 14 -292 16 -293 2z"/>
</g>
</svg>
